<svg xmlns="http://www.w3.org/2000/svg" xmlns:xlink="http://www.w3.org/1999/xlink" width="500" zoomAndPan="magnify" viewBox="0 0 375 374.999991" height="500" preserveAspectRatio="xMidYMid meet" version="1.0"><defs><g/><clipPath id="02950ce241"><path d="M 80 58 L 336.375 58 L 336.375 314.132812 L 80 314.132812 Z M 80 58 " clip-rule="nonzero"/></clipPath></defs><rect x="-37.5" width="450" fill="#ffffff" y="-37.499999" height="449.999989" fill-opacity="1"/><rect x="-37.5" width="450" fill="#000000" y="-37.499999" height="449.999989" fill-opacity="1"/><g clip-path="url(#02950ce241)"><path fill="#7ed957" d="M 292.816406 58.5625 L 80.832031 270.546875 C 82.609375 272.328125 85.511719 272.328125 87.292969 270.546875 L 103.414062 254.425781 L 101.085938 266.113281 C 100.59375 268.605469 102.207031 270.984375 104.671875 271.480469 C 107.164062 271.972656 109.542969 270.355469 110.035156 267.894531 L 115.046875 242.765625 L 138.308594 219.5 L 132.125 252.648438 C 131.660156 255.136719 133.300781 257.519531 135.765625 257.984375 C 138.253906 258.449219 140.636719 256.808594 141.101562 254.34375 L 149.75 208.0625 L 182.210938 175.597656 L 182.210938 221.5 L 155.609375 260.339844 C 154.183594 262.417969 154.707031 265.265625 156.8125 266.6875 C 158.894531 268.113281 161.738281 267.59375 163.164062 265.511719 L 182.210938 237.675781 L 182.210938 270.574219 L 168.007812 291.871094 C 166.613281 293.976562 167.160156 296.824219 169.265625 298.21875 C 171.375 299.617188 174.21875 299.066406 175.617188 296.960938 L 182.210938 287.050781 L 182.210938 309.878906 C 182.210938 311.140625 182.734375 312.289062 183.554688 313.109375 C 184.375 313.929688 185.523438 314.449219 186.785156 314.449219 C 189.300781 314.449219 191.355469 312.398438 191.355469 309.878906 L 191.355469 287.078125 L 197.949219 296.988281 C 199.347656 299.066406 202.191406 299.644531 204.300781 298.246094 C 206.410156 296.851562 206.957031 294.003906 205.558594 291.898438 L 191.355469 270.574219 L 191.355469 237.703125 L 210.40625 265.511719 C 211.828125 267.59375 214.675781 268.113281 216.753906 266.714844 C 218.835938 265.292969 219.382812 262.445312 217.957031 260.367188 L 191.355469 221.527344 L 191.355469 175.625 L 223.816406 208.089844 L 232.464844 254.371094 C 232.929688 256.863281 235.3125 258.476562 237.800781 258.039062 C 240.292969 257.574219 241.90625 255.191406 241.46875 252.703125 L 235.257812 219.554688 L 258.523438 242.820312 L 263.53125 267.949219 C 264.023438 270.410156 266.433594 272.027344 268.921875 271.535156 C 271.386719 271.039062 273 268.632812 272.507812 266.167969 L 270.183594 254.507812 L 286.304688 270.628906 C 288.082031 272.410156 290.984375 272.410156 292.761719 270.628906 C 294.542969 268.851562 294.542969 265.949219 292.761719 264.171875 L 276.640625 248.050781 L 288.328125 250.375 C 290.792969 250.867188 293.226562 249.253906 293.691406 246.789062 C 294.1875 244.300781 292.570312 241.890625 290.109375 241.398438 L 264.980469 236.390625 L 241.714844 213.125 L 274.863281 219.335938 C 277.351562 219.804688 279.734375 218.160156 280.199219 215.667969 C 280.664062 213.179688 279.023438 210.796875 276.53125 210.332031 L 230.25 201.683594 L 197.785156 169.222656 L 243.714844 169.222656 L 282.554688 195.828125 C 284.632812 197.25 287.480469 196.730469 288.929688 194.621094 C 290.355469 192.542969 289.835938 189.695312 287.726562 188.273438 L 259.917969 169.222656 L 292.789062 169.222656 L 314.113281 183.425781 C 316.21875 184.824219 319.039062 184.25 320.460938 182.167969 C 321.859375 180.0625 321.308594 177.214844 319.203125 175.816406 L 309.292969 169.222656 L 332.09375 169.222656 C 333.351562 169.222656 334.503906 168.703125 335.324219 167.878906 C 336.144531 167.058594 336.664062 165.910156 336.664062 164.652344 C 336.664062 162.132812 334.613281 160.082031 332.09375 160.082031 L 309.265625 160.082031 L 319.175781 153.484375 C 321.28125 152.089844 321.832031 149.242188 320.433594 147.132812 C 319.039062 145.027344 316.191406 144.480469 314.085938 145.875 L 292.789062 160.082031 L 259.890625 160.082031 L 287.726562 141.03125 C 289.808594 139.605469 290.328125 136.761719 288.902344 134.679688 C 287.480469 132.601562 284.632812 132.050781 282.554688 133.476562 L 243.714844 160.082031 L 197.785156 160.082031 L 230.25 127.617188 L 276.53125 118.96875 C 279.023438 118.503906 280.636719 116.121094 280.171875 113.632812 C 279.707031 111.140625 277.324219 109.5 274.835938 109.992188 L 241.6875 116.175781 L 264.953125 92.914062 L 290.082031 87.902344 C 292.570312 87.410156 294.160156 85.003906 293.667969 82.539062 C 293.171875 80.046875 290.765625 78.460938 288.300781 78.953125 L 276.613281 81.28125 L 292.734375 65.160156 C 294.597656 63.242188 294.597656 60.367188 292.816406 58.5625 Z M 292.816406 58.5625 " fill-opacity="1" fill-rule="nonzero"/></g><path fill="#0cc0df" d="M 105.246094 223.167969 L 74.917969 253.496094 C 71.855469 256.5625 71.855469 261.570312 74.917969 264.636719 L 116.386719 223.167969 C 113.292969 220.078125 108.3125 220.078125 105.246094 223.167969 Z M 105.246094 223.167969 " fill-opacity="1" fill-rule="nonzero"/><path fill="#0cc0df" d="M 92.984375 183.125 L 92.519531 181.347656 C 91.535156 177.625 87.703125 175.433594 84.007812 176.421875 L 40.816406 188 C 37.09375 188.984375 34.902344 192.816406 35.890625 196.511719 L 36.355469 198.289062 C 37.339844 202.011719 41.171875 204.203125 44.867188 203.214844 L 88.058594 191.636719 C 91.78125 190.652344 93.996094 186.847656 92.984375 183.125 Z M 92.984375 183.125 " fill-opacity="1" fill-rule="nonzero"/><path fill="#0cc0df" d="M 92.519531 135.910156 L 92.984375 134.132812 C 93.96875 130.410156 91.78125 126.605469 88.058594 125.621094 L 44.867188 114.042969 C 41.144531 113.058594 37.339844 115.246094 36.355469 118.96875 L 35.890625 120.75 C 34.902344 124.472656 37.09375 128.273438 40.816406 129.261719 L 84.007812 140.839844 C 87.703125 141.824219 91.535156 139.605469 92.519531 135.910156 Z M 92.519531 135.910156 " fill-opacity="1" fill-rule="nonzero"/><path fill="#0cc0df" d="M 115.730469 94.746094 L 117.015625 93.460938 C 119.726562 90.75 119.726562 86.34375 117.015625 83.605469 L 85.402344 51.992188 C 82.691406 49.285156 78.285156 49.285156 75.550781 51.992188 L 74.261719 53.28125 C 71.554688 55.988281 71.554688 60.394531 74.261719 63.132812 L 105.875 94.746094 C 108.613281 97.484375 113.019531 97.484375 115.730469 94.746094 Z M 115.730469 94.746094 " fill-opacity="1" fill-rule="nonzero"/><path fill="#0cc0df" d="M 156.402344 70.714844 L 158.179688 70.25 C 161.902344 69.265625 164.09375 65.433594 163.109375 61.738281 L 151.53125 18.546875 C 150.542969 14.824219 146.714844 12.632812 143.019531 13.621094 L 141.238281 14.085938 C 137.515625 15.070312 135.328125 18.902344 136.3125 22.597656 L 147.890625 65.789062 C 148.875 69.511719 152.679688 71.726562 156.402344 70.714844 Z M 156.402344 70.714844 " fill-opacity="1" fill-rule="nonzero"/><path fill="#0cc0df" d="M 203.644531 70.25 L 205.421875 70.714844 C 209.144531 71.699219 212.949219 69.511719 213.933594 65.789062 L 225.511719 22.597656 C 226.5 18.875 224.308594 15.070312 220.585938 14.085938 L 218.808594 13.621094 C 215.085938 12.632812 211.28125 14.824219 210.296875 18.546875 L 198.71875 61.738281 C 197.730469 65.433594 199.921875 69.265625 203.644531 70.25 Z M 203.644531 70.25 " fill-opacity="1" fill-rule="nonzero"/><path fill="#0cc0df" d="M 127.800781 105.53125 C 98.484375 134.84375 98.484375 182.414062 127.800781 211.730469 L 233.996094 105.53125 C 204.683594 76.214844 157.113281 76.214844 127.800781 105.53125 Z M 127.800781 105.53125 " fill-opacity="1" fill-rule="nonzero"/><path fill="#0cc0df" d="M 275.738281 52.648438 L 245.410156 82.976562 C 242.347656 86.042969 242.347656 91.050781 245.410156 94.117188 L 286.90625 52.648438 C 285.371094 51.117188 283.347656 50.351562 281.320312 50.351562 C 279.296875 50.351562 277.296875 51.089844 275.738281 52.648438 Z M 275.738281 52.648438 " fill-opacity="1" fill-rule="nonzero"/><g fill="#d9d9d9" fill-opacity="1"><g transform="translate(8.616276, 355.070629)"><g><path d="M 18.828125 0.703125 C 16.421875 0.703125 14.179688 0.273438 12.109375 -0.578125 C 10.046875 -1.441406 8.242188 -2.648438 6.703125 -4.203125 C 5.171875 -5.753906 3.984375 -7.566406 3.140625 -9.640625 C 2.296875 -11.722656 1.875 -13.972656 1.875 -16.390625 C 1.875 -18.828125 2.296875 -21.09375 3.140625 -23.1875 C 3.984375 -25.289062 5.171875 -27.113281 6.703125 -28.65625 C 8.242188 -30.207031 10.046875 -31.414062 12.109375 -32.28125 C 14.179688 -33.144531 16.421875 -33.578125 18.828125 -33.578125 C 21.484375 -33.578125 23.921875 -33.023438 26.140625 -31.921875 C 28.367188 -30.828125 30.234375 -29.296875 31.734375 -27.328125 C 33.242188 -25.359375 34.25 -23.070312 34.75 -20.46875 L 27.609375 -20.46875 C 26.953125 -22.40625 25.835938 -23.945312 24.265625 -25.09375 C 22.703125 -26.238281 20.890625 -26.8125 18.828125 -26.8125 C 16.984375 -26.8125 15.320312 -26.347656 13.84375 -25.421875 C 12.375 -24.503906 11.207031 -23.257812 10.34375 -21.6875 C 9.488281 -20.125 9.0625 -18.359375 9.0625 -16.390625 C 9.0625 -14.410156 9.488281 -12.644531 10.34375 -11.09375 C 11.207031 -9.550781 12.375 -8.328125 13.84375 -7.421875 C 15.320312 -6.515625 16.984375 -6.0625 18.828125 -6.0625 C 20.984375 -6.0625 22.84375 -6.671875 24.40625 -7.890625 C 25.976562 -9.109375 27.0625 -10.765625 27.65625 -12.859375 L 34.84375 -12.859375 C 34.34375 -10.140625 33.347656 -7.757812 31.859375 -5.71875 C 30.367188 -3.6875 28.503906 -2.109375 26.265625 -0.984375 C 24.023438 0.140625 21.546875 0.703125 18.828125 0.703125 Z M 18.828125 0.703125 "/></g></g></g><g fill="#d9d9d9" fill-opacity="1"><g transform="translate(44.809369, 355.070629)"><g><path d="M 3.28125 0 L 3.28125 -34.515625 L 10.140625 -34.515625 L 10.140625 0 Z M 3.28125 0 "/></g></g></g><g fill="#d9d9d9" fill-opacity="1"><g transform="translate(58.235093, 355.070629)"><g><path d="M 3.28125 -28.734375 L 3.28125 -35.125 L 10.140625 -35.125 L 10.140625 -28.734375 Z M 3.28125 0 L 3.28125 -25.359375 L 10.140625 -25.359375 L 10.140625 0 Z M 3.28125 0 "/></g></g></g><g fill="#d9d9d9" fill-opacity="1"><g transform="translate(71.660817, 355.070629)"><g><path d="M 32.109375 -25.96875 C 33.867188 -25.96875 35.421875 -25.535156 36.765625 -24.671875 C 38.109375 -23.804688 39.160156 -22.625 39.921875 -21.125 C 40.691406 -19.625 41.078125 -17.890625 41.078125 -15.921875 L 41.078125 0 L 34.234375 0 L 34.234375 -14.796875 C 34.234375 -18.234375 32.945312 -19.953125 30.375 -19.953125 C 28.875 -19.953125 27.691406 -19.40625 26.828125 -18.3125 C 25.972656 -17.21875 25.546875 -15.679688 25.546875 -13.703125 L 25.546875 0 L 18.828125 0 L 18.828125 -14.796875 C 18.828125 -18.234375 17.59375 -19.953125 15.125 -19.953125 C 13.550781 -19.953125 12.328125 -19.40625 11.453125 -18.3125 C 10.578125 -17.21875 10.140625 -15.679688 10.140625 -13.703125 L 10.140625 0 L 3.28125 0 L 3.28125 -25.359375 L 8.078125 -25.359375 L 9.34375 -22.203125 C 10.25 -23.335938 11.367188 -24.25 12.703125 -24.9375 C 14.035156 -25.625 15.453125 -25.96875 16.953125 -25.96875 C 18.546875 -25.96875 19.984375 -25.609375 21.265625 -24.890625 C 22.546875 -24.171875 23.550781 -23.164062 24.28125 -21.875 C 25.15625 -23.132812 26.28125 -24.128906 27.65625 -24.859375 C 29.03125 -25.597656 30.515625 -25.96875 32.109375 -25.96875 Z M 32.109375 -25.96875 "/></g></g></g><g fill="#d9d9d9" fill-opacity="1"><g transform="translate(115.693423, 355.070629)"><g><path d="M 24 -25.40625 L 29.109375 -25.40625 L 29.109375 -0.046875 L 23.71875 -0.046875 L 23.140625 -2.296875 C 22.046875 -1.359375 20.800781 -0.625 19.40625 -0.09375 C 18.019531 0.4375 16.53125 0.703125 14.9375 0.703125 C 12.394531 0.703125 10.125 0.117188 8.125 -1.046875 C 6.125 -2.222656 4.539062 -3.820312 3.375 -5.84375 C 2.21875 -7.863281 1.640625 -10.15625 1.640625 -12.71875 C 1.640625 -15.257812 2.21875 -17.535156 3.375 -19.546875 C 4.539062 -21.566406 6.125 -23.15625 8.125 -24.3125 C 10.125 -25.476562 12.394531 -26.0625 14.9375 -26.0625 C 16.5625 -26.0625 18.078125 -25.785156 19.484375 -25.234375 C 20.890625 -24.691406 22.140625 -23.929688 23.234375 -22.953125 Z M 15.5 -5.78125 C 16.8125 -5.78125 17.988281 -6.078125 19.03125 -6.671875 C 20.082031 -7.265625 20.90625 -8.082031 21.5 -9.125 C 22.09375 -10.175781 22.390625 -11.375 22.390625 -12.71875 C 22.390625 -14.039062 22.09375 -15.222656 21.5 -16.265625 C 20.90625 -17.316406 20.082031 -18.144531 19.03125 -18.75 C 17.988281 -19.363281 16.8125 -19.671875 15.5 -19.671875 C 14.144531 -19.671875 12.953125 -19.363281 11.921875 -18.75 C 10.890625 -18.144531 10.078125 -17.316406 9.484375 -16.265625 C 8.890625 -15.222656 8.59375 -14.039062 8.59375 -12.71875 C 8.59375 -11.375 8.890625 -10.1875 9.484375 -9.15625 C 10.078125 -8.125 10.890625 -7.300781 11.921875 -6.6875 C 12.953125 -6.082031 14.144531 -5.78125 15.5 -5.78125 Z M 15.5 -5.78125 "/></g></g></g><g fill="#d9d9d9" fill-opacity="1"><g transform="translate(148.084143, 355.070629)"><g><path d="M 15.6875 -6.109375 L 18.78125 -6.109375 L 18.78125 0 L 13.9375 0 C 11.15625 0 8.957031 -0.804688 7.34375 -2.421875 C 5.738281 -4.035156 4.9375 -6.25 4.9375 -9.0625 L 4.9375 -19.859375 L 0.328125 -19.859375 L 0.328125 -21.3125 L 10.375 -31.96875 L 11.640625 -31.96875 L 11.640625 -25.359375 L 18.640625 -25.359375 L 18.640625 -19.859375 L 11.78125 -19.859375 L 11.78125 -9.953125 C 11.78125 -8.734375 12.113281 -7.785156 12.78125 -7.109375 C 13.457031 -6.441406 14.425781 -6.109375 15.6875 -6.109375 Z M 15.6875 -6.109375 "/></g></g></g><g fill="#d9d9d9" fill-opacity="1"><g transform="translate(168.269657, 355.070629)"><g><path d="M 27.890625 -12.765625 C 27.890625 -12.109375 27.84375 -11.4375 27.75 -10.75 L 8.59375 -10.75 C 8.875 -9.03125 9.5625 -7.707031 10.65625 -6.78125 C 11.75 -5.863281 13.128906 -5.40625 14.796875 -5.40625 C 15.984375 -5.40625 17.046875 -5.660156 17.984375 -6.171875 C 18.921875 -6.691406 19.640625 -7.40625 20.140625 -8.3125 L 27.375 -8.3125 C 26.4375 -5.550781 24.835938 -3.359375 22.578125 -1.734375 C 20.328125 -0.109375 17.734375 0.703125 14.796875 0.703125 C 12.285156 0.703125 10.035156 0.117188 8.046875 -1.046875 C 6.066406 -2.222656 4.503906 -3.820312 3.359375 -5.84375 C 2.210938 -7.863281 1.640625 -10.140625 1.640625 -12.671875 C 1.640625 -15.210938 2.210938 -17.488281 3.359375 -19.5 C 4.503906 -21.519531 6.066406 -23.117188 8.046875 -24.296875 C 10.035156 -25.472656 12.285156 -26.0625 14.796875 -26.0625 C 17.390625 -26.0625 19.671875 -25.457031 21.640625 -24.25 C 23.617188 -23.039062 25.15625 -21.4375 26.25 -19.4375 C 27.34375 -17.4375 27.890625 -15.210938 27.890625 -12.765625 Z M 14.796875 -20.234375 C 13.253906 -20.234375 11.957031 -19.8125 10.90625 -18.96875 C 9.863281 -18.125 9.15625 -16.953125 8.78125 -15.453125 L 21.03125 -15.453125 C 20.03125 -18.640625 17.953125 -20.234375 14.796875 -20.234375 Z M 14.796875 -20.234375 "/></g></g></g><g fill="#d9d9d9" fill-opacity="1"><g transform="translate(197.7499, 355.070629)"><g/></g></g><g fill="#d9d9d9" fill-opacity="1"><g transform="translate(208.969285, 355.070629)"><g><path d="M 25.59375 0 L 23.28125 -6.25 L 10.1875 -6.25 L 7.9375 0 L 0.421875 0 L 13.28125 -32.875 L 20 -32.875 L 33.296875 0 Z M 16.71875 -24.1875 L 12.4375 -12.4375 L 21.03125 -12.4375 Z M 16.71875 -24.1875 "/></g></g></g><g fill="#d9d9d9" fill-opacity="1"><g transform="translate(242.674403, 355.070629)"><g><path d="M 15.078125 0.703125 C 12.535156 0.703125 10.25 0.109375 8.21875 -1.078125 C 6.1875 -2.265625 4.582031 -3.875 3.40625 -5.90625 C 2.226562 -7.945312 1.640625 -10.234375 1.640625 -12.765625 C 1.640625 -15.304688 2.226562 -17.578125 3.40625 -19.578125 C 4.582031 -21.578125 6.1875 -23.15625 8.21875 -24.3125 C 10.25 -25.476562 12.550781 -26.0625 15.125 -26.0625 C 17.3125 -26.0625 19.304688 -25.628906 21.109375 -24.765625 C 22.910156 -23.910156 24.410156 -22.695312 25.609375 -21.125 C 26.816406 -19.5625 27.625 -17.75 28.03125 -15.6875 L 21.21875 -15.6875 C 20.65625 -16.9375 19.832031 -17.90625 18.75 -18.59375 C 17.675781 -19.28125 16.453125 -19.625 15.078125 -19.625 C 13.847656 -19.625 12.738281 -19.316406 11.75 -18.703125 C 10.769531 -18.097656 10 -17.28125 9.4375 -16.25 C 8.875 -15.21875 8.59375 -14.039062 8.59375 -12.71875 C 8.59375 -11.40625 8.875 -10.222656 9.4375 -9.171875 C 10 -8.128906 10.769531 -7.296875 11.75 -6.671875 C 12.738281 -6.046875 13.847656 -5.734375 15.078125 -5.734375 C 16.484375 -5.734375 17.707031 -6.097656 18.75 -6.828125 C 19.800781 -7.566406 20.625 -8.625 21.21875 -10 L 28.125 -10 C 27.71875 -7.875 26.90625 -6.003906 25.6875 -4.390625 C 24.46875 -2.773438 22.945312 -1.519531 21.125 -0.625 C 19.3125 0.257812 17.296875 0.703125 15.078125 0.703125 Z M 15.078125 0.703125 "/></g></g></g><g fill="#d9d9d9" fill-opacity="1"><g transform="translate(272.013827, 355.070629)"><g><path d="M 15.6875 -6.109375 L 18.78125 -6.109375 L 18.78125 0 L 13.9375 0 C 11.15625 0 8.957031 -0.804688 7.34375 -2.421875 C 5.738281 -4.035156 4.9375 -6.25 4.9375 -9.0625 L 4.9375 -19.859375 L 0.328125 -19.859375 L 0.328125 -21.3125 L 10.375 -31.96875 L 11.640625 -31.96875 L 11.640625 -25.359375 L 18.640625 -25.359375 L 18.640625 -19.859375 L 11.78125 -19.859375 L 11.78125 -9.953125 C 11.78125 -8.734375 12.113281 -7.785156 12.78125 -7.109375 C 13.457031 -6.441406 14.425781 -6.109375 15.6875 -6.109375 Z M 15.6875 -6.109375 "/></g></g></g><g fill="#d9d9d9" fill-opacity="1"><g transform="translate(292.199341, 355.070629)"><g><path d="M 3.28125 -28.734375 L 3.28125 -35.125 L 10.140625 -35.125 L 10.140625 -28.734375 Z M 3.28125 0 L 3.28125 -25.359375 L 10.140625 -25.359375 L 10.140625 0 Z M 3.28125 0 "/></g></g></g><g fill="#d9d9d9" fill-opacity="1"><g transform="translate(305.625065, 355.070629)"><g><path d="M 15.359375 0.703125 C 12.722656 0.703125 10.375 0.117188 8.3125 -1.046875 C 6.25 -2.222656 4.617188 -3.820312 3.421875 -5.84375 C 2.234375 -7.863281 1.640625 -10.140625 1.640625 -12.671875 C 1.640625 -15.242188 2.234375 -17.535156 3.421875 -19.546875 C 4.617188 -21.566406 6.25 -23.15625 8.3125 -24.3125 C 10.375 -25.476562 12.722656 -26.0625 15.359375 -26.0625 C 17.953125 -26.0625 20.28125 -25.476562 22.34375 -24.3125 C 24.414062 -23.15625 26.046875 -21.566406 27.234375 -19.546875 C 28.421875 -17.535156 29.015625 -15.242188 29.015625 -12.671875 C 29.015625 -10.140625 28.421875 -7.863281 27.234375 -5.84375 C 26.046875 -3.820312 24.414062 -2.222656 22.34375 -1.046875 C 20.28125 0.117188 17.953125 0.703125 15.359375 0.703125 Z M 15.359375 -5.734375 C 17.328125 -5.734375 18.9375 -6.375 20.1875 -7.65625 C 21.4375 -8.9375 22.0625 -10.609375 22.0625 -12.671875 C 22.0625 -14.742188 21.4375 -16.421875 20.1875 -17.703125 C 18.9375 -18.984375 17.328125 -19.625 15.359375 -19.625 C 13.347656 -19.625 11.71875 -18.984375 10.46875 -17.703125 C 9.21875 -16.421875 8.59375 -14.742188 8.59375 -12.671875 C 8.59375 -10.609375 9.21875 -8.9375 10.46875 -7.65625 C 11.71875 -6.375 13.347656 -5.734375 15.359375 -5.734375 Z M 15.359375 -5.734375 "/></g></g></g><g fill="#d9d9d9" fill-opacity="1"><g transform="translate(336.278886, 355.070629)"><g><path d="M 17.75 -25.96875 C 20.625 -25.96875 22.898438 -25.003906 24.578125 -23.078125 C 26.253906 -21.148438 27.09375 -18.578125 27.09375 -15.359375 L 27.09375 0 L 20.234375 0 L 20.234375 -14.28125 C 20.234375 -18.0625 18.765625 -19.953125 15.828125 -19.953125 C 14.066406 -19.953125 12.675781 -19.359375 11.65625 -18.171875 C 10.644531 -16.984375 10.140625 -15.367188 10.140625 -13.328125 L 10.140625 0 L 3.28125 0 L 3.28125 -25.359375 L 7.984375 -25.359375 L 9.34375 -22.203125 C 10.28125 -23.367188 11.484375 -24.285156 12.953125 -24.953125 C 14.429688 -25.628906 16.03125 -25.96875 17.75 -25.96875 Z M 17.75 -25.96875 "/></g></g></g><g fill="#000000" fill-opacity="1"><g transform="translate(151.068337, 171.990749)"><g><path d="M 10.265625 -37.796875 L 15.59375 -32.46875 C 17.863281 -28.90625 18.675781 -25.300781 18.03125 -21.65625 C 17.382812 -18.007812 15.742188 -14.867188 13.109375 -12.234375 C 9.785156 -8.910156 5.71875 -7.320312 0.90625 -7.46875 C -3.90625 -7.613281 -8.070312 -9.445312 -11.59375 -12.96875 C -15.164062 -16.539062 -17.039062 -20.703125 -17.21875 -25.453125 C -17.394531 -30.203125 -15.773438 -34.285156 -12.359375 -37.703125 C -8.367188 -41.691406 -3.8125 -43.457031 1.3125 -43 L 1.671875 -35.296875 C -1.742188 -36.085938 -4.625 -35.3125 -6.96875 -32.96875 C -8.695312 -31.238281 -9.421875 -29.007812 -9.140625 -26.28125 C -8.867188 -23.5625 -7.671875 -21.140625 -5.546875 -19.015625 C -3.453125 -16.921875 -1.054688 -15.742188 1.640625 -15.484375 C 4.347656 -15.234375 6.566406 -15.972656 8.296875 -17.703125 C 9.722656 -19.128906 10.535156 -20.804688 10.734375 -22.734375 C 10.929688 -24.660156 10.3125 -26.34375 8.875 -27.78125 L 3.21875 -22.125 L -1.09375 -26.4375 Z M 10.265625 -37.796875 "/></g></g></g><g fill="#000000" fill-opacity="1"><g transform="translate(175.781567, 147.277519)"><g><path d="M -4.34375 -5.4375 L -2.046875 -12.015625 C 0.367188 -10.703125 2.738281 -11.207031 5.0625 -13.53125 C 6.070312 -14.539062 6.570312 -15.71875 6.5625 -17.0625 C 6.550781 -18.40625 6.03125 -19.59375 5 -20.625 C 3.96875 -21.65625 2.796875 -22.179688 1.484375 -22.203125 C 0.171875 -22.222656 -1.0625 -21.910156 -2.21875 -21.265625 C -3.375 -20.617188 -4.53125 -19.71875 -5.6875 -18.5625 C -7.3125 -16.9375 -8.457031 -15.28125 -9.125 -13.59375 L -20.296875 -28.890625 L -7.75 -41.4375 L -2.828125 -36.515625 L -10.578125 -28.765625 L -7.6875 -24.78125 C -7.625 -24.84375 -7.519531 -24.960938 -7.375 -25.140625 C -7.226562 -25.316406 -7.117188 -25.441406 -7.046875 -25.515625 C -5.796875 -26.765625 -4.519531 -27.765625 -3.21875 -28.515625 C -1.914062 -29.265625 -0.503906 -29.78125 1.015625 -30.0625 C 2.546875 -30.351562 4.148438 -30.164062 5.828125 -29.5 C 7.503906 -28.832031 9.15625 -27.6875 10.78125 -26.0625 C 13.132812 -23.707031 14.207031 -20.910156 14 -17.671875 C 13.800781 -14.441406 12.378906 -11.503906 9.734375 -8.859375 C 7.328125 -6.453125 4.878906 -5.046875 2.390625 -4.640625 C -0.0976562 -4.234375 -2.34375 -4.5 -4.34375 -5.4375 Z M -4.34375 -5.4375 "/></g></g></g></svg>